<mxfile host="app.diagrams.net" modified="2024-06-18T02:46:06.024Z" agent="Mozilla/5.0 (Windows NT 10.0; Win64; x64) AppleWebKit/537.36 (KHTML, like Gecko) Chrome/121.0.0.0 Safari/537.36" version="24.4.13" etag="bn5a81lRZXLcdZVaqUtl" type="github">
  <diagram name="第 1 页" id="VBp05L1x4JAxkf1i_E3z">
    <mxGraphModel>
      <root>
        <mxCell id="0" />
        <mxCell id="1" parent="0" />
      </root>
    </mxGraphModel>
  </diagram>
</mxfile>
